<svg id="SvgjsSvg1000" xmlns="http://www.w3.org/2000/svg" version="1.1" xmlns:xlink="http://www.w3.org/1999/xlink" xmlns:svgjs="http://svgjs.com/svgjs" width="871.28125" height="974.421875"><defs id="SvgjsDefs1001"><pattern id="SvgjsPattern1093" x="0" y="0" width="64" height="64" patternUnits="userSpaceOnUse"><image id="SvgjsImage1094" xlink:href="https://img7.file.cache.docer.com/storage/image/3/5/7/9/4/b19634a55a8d18837d8ce7039c300d4b.png/128x128.png" width="64" height="64" preserveAspectRatio="none" crossOrigin="anonymous" x="0" y="0"></image></pattern><pattern id="SvgjsPattern1107" x="0" y="0" width="64" height="64" patternUnits="userSpaceOnUse"><image id="SvgjsImage1108" xlink:href="https://img7.file.cache.docer.com/storage/image/3/5/7/9/4/b19634a55a8d18837d8ce7039c300d4b.png/128x128.png" width="64" height="64" preserveAspectRatio="none" crossOrigin="anonymous" x="0" y="0"></image></pattern><pattern id="SvgjsPattern1121" x="0" y="0" width="64" height="64" patternUnits="userSpaceOnUse"><image id="SvgjsImage1122" xlink:href="https://img7.file.cache.docer.com/storage/image/3/5/7/9/4/b19634a55a8d18837d8ce7039c300d4b.png/128x128.png" width="64" height="64" preserveAspectRatio="none" crossOrigin="anonymous" x="0" y="0"></image></pattern></defs><g id="SvgjsG1007" transform="translate(26.84957470414207,376.96875)"><path id="SvgjsPath1008" d="M0 4Q0 0 4 0L612.6035502958579 0Q616.6035502958579 0 616.6035502958579 4L616.6035502958579 132.50000000000003Q616.6035502958579 136.50000000000003 612.6035502958579 136.50000000000003L4 136.50000000000003Q0 136.50000000000003 0 132.50000000000003Z " stroke="rgba(204,229,255,1)" stroke-width="1" fill-opacity="1" fill="#cce5ff"></path><g id="SvgjsG1009"><text id="SvgjsText1010" font-family="微软雅黑" text-anchor="middle" font-size="13px" width="597px" fill="#323232" font-weight="400" align="middle" lineHeight="125%" font-style="" opacity="1" y="58.625000000000014" transform="rotate(0)"></text></g></g><g id="SvgjsG1011" transform="translate(661.953125,376.96875)"><path id="SvgjsPath1012" d="M0 4Q0 0 4 0L171.81952662721892 0Q175.81952662721892 0 175.81952662721892 4L175.81952662721892 132.5Q175.81952662721892 136.5 171.81952662721892 136.5L4 136.5Q0 136.5 0 132.5Z " stroke="rgba(204,229,255,1)" stroke-width="1" fill-opacity="1" fill="#cce5ff"></path><g id="SvgjsG1013"><text id="SvgjsText1014" font-family="微软雅黑" text-anchor="middle" font-size="13px" width="156px" fill="#323232" font-weight="400" align="middle" lineHeight="125%" font-style="" opacity="1" y="58.625" transform="rotate(0)"></text></g></g><g id="SvgjsG1015" transform="translate(30.080343934910843,650.4687499999999)"><path id="SvgjsPath1016" d="M0 4Q0 0 4 0L805.3076923076924 0Q809.3076923076924 0 809.3076923076924 4L809.3076923076924 186.15384615384625Q809.3076923076924 190.15384615384625 805.3076923076924 190.15384615384625L4 190.15384615384625Q0 190.15384615384625 0 186.15384615384625Z " stroke="rgba(204,229,255,1)" stroke-width="1" fill-opacity="1" fill="#cce5ff"></path><g id="SvgjsG1017"><text id="SvgjsText1018" font-family="微软雅黑" text-anchor="middle" font-size="13px" width="790px" fill="#323232" font-weight="400" align="middle" lineHeight="125%" font-style="" opacity="1" y="85.45192307692312" transform="rotate(0)"></text></g></g><g id="SvgjsG1019" transform="translate(25.00342085798826,25.005846040054593)"><path id="SvgjsPath1020" d="M0 4Q0 0 4 0L806 0Q810 0 810 4L810 68Q810 72 806 72L4 72Q0 72 0 68Z " stroke="rgba(204,229,255,1)" stroke-width="1" fill-opacity="1" fill="#cce5ff"></path><g id="SvgjsG1021"><text id="SvgjsText1022" font-family="微软雅黑" text-anchor="middle" font-size="13px" width="790px" fill="#323232" font-weight="400" align="middle" lineHeight="125%" font-style="" opacity="1" y="26.375" transform="rotate(0)"></text></g></g><g id="SvgjsG1023" transform="translate(25.003420857988203,108.50584604005459)"><path id="SvgjsPath1024" d="M0 4Q0 0 4 0L807.1005917159765 0Q811.1005917159765 0 811.1005917159765 4L811.1005917159765 242.9629039599454Q811.1005917159765 246.9629039599454 807.1005917159765 246.9629039599454L4 246.9629039599454Q0 246.9629039599454 0 242.9629039599454Z " stroke="rgba(204,229,255,1)" stroke-width="1" fill-opacity="1" fill="#cce5ff"></path><g id="SvgjsG1025"><text id="SvgjsText1026" font-family="微软雅黑" text-anchor="middle" font-size="13px" width="792px" fill="#323232" font-weight="400" align="middle" lineHeight="125%" font-style="" opacity="1" y="113.8564519799727" transform="rotate(0)"></text></g></g><g id="SvgjsG1027" transform="translate(50.86389493102439,688.6065176197112)"><path id="SvgjsPath1028" d="M0 4Q0 0 4 0L194.44970414201208 0Q198.44970414201208 0 198.44970414201208 4L198.44970414201208 126.7222086061413Q198.44970414201208 130.7222086061413 194.44970414201208 130.7222086061413L4 130.7222086061413Q0 130.7222086061413 0 126.7222086061413Z " stroke="rgba(229,229,229,1)" stroke-width="1" fill-opacity="1" fill="#ffffff"></path><g id="SvgjsG1029"><text id="SvgjsText1030" font-family="微软雅黑" text-anchor="middle" font-size="13px" width="179px" fill="#323232" font-weight="400" align="middle" lineHeight="125%" font-style="" opacity="1" y="55.73610430307065" transform="rotate(0)"></text></g></g><g id="SvgjsG1031" transform="translate(271.0837956114395,650.585772176899)"><path id="SvgjsPath1032" d="M0 0L319 0L319 29L0 29Z " stroke="none" fill="none"></path><g id="SvgjsG1033"><text id="SvgjsText1034" font-family="微软雅黑" text-anchor="middle" font-size="14px" width="319px" fill="#0066cc" font-weight="700" align="middle" lineHeight="125%" font-style="" opacity="1" y="4.25" transform="rotate(0)"><tspan id="SvgjsTspan1035" dy="17" x="159.5"><tspan id="SvgjsTspan1036" style="text-decoration:;">区块链网络</tspan></tspan></text></g></g><g id="SvgjsG1037" transform="translate(91.9219461197084,705.1286693513857)"><path id="SvgjsPath1038" d="M0 4Q0 0 4 0L113.03095129722351 0Q117.03095129722351 0 117.03095129722351 4L117.03095129722351 22.73076923076934Q117.03095129722351 26.73076923076934 113.03095129722351 26.73076923076934L4 26.73076923076934Q0 26.73076923076934 0 22.73076923076934Z " stroke="rgba(51,153,255,1)" stroke-width="1" fill-opacity="1" fill="#3399ff"></path><g id="SvgjsG1039"><text id="SvgjsText1040" font-family="微软雅黑" text-anchor="middle" font-size="14px" width="98px" fill="#ffffff" font-weight="700" align="middle" lineHeight="125%" font-style="" opacity="1" y="3.11538461538467" transform="rotate(0)"><tspan id="SvgjsTspan1041" dy="17" x="59"><tspan id="SvgjsTspan1042" style="text-decoration:;">节点边车服务</tspan></tspan></text></g></g><g id="SvgjsG1043" transform="translate(267.58675419132163,111.5129421399507)"><path id="SvgjsPath1044" d="M0 0L319 0L319 29L0 29Z " stroke="none" fill="none"></path><g id="SvgjsG1045"><text id="SvgjsText1046" font-family="微软雅黑" text-anchor="middle" font-size="14px" width="319px" fill="#0066cc" font-weight="700" align="middle" lineHeight="125%" font-style="" opacity="1" y="4.25" transform="rotate(0)"><tspan id="SvgjsTspan1047" dy="17" x="159.5"><tspan id="SvgjsTspan1048" style="text-decoration:;">管理接口层</tspan></tspan></text></g></g><g id="SvgjsG1049" transform="translate(492.1829080374755,157.51915964952204)"><path id="SvgjsPath1050" d="M0 4Q0 0 4 0L101.38461538461536 0Q105.38461538461536 0 105.38461538461536 4L105.38461538461536 24.97337278106511Q105.38461538461536 28.97337278106511 101.38461538461536 28.97337278106511L4 28.97337278106511Q0 28.97337278106511 0 24.97337278106511Z " stroke="rgba(51,153,255,1)" stroke-width="1" fill-opacity="1" fill="#3399ff"></path><g id="SvgjsG1051"><text id="SvgjsText1052" font-family="微软雅黑" text-anchor="middle" font-size="14px" width="86px" fill="#ffffff" font-weight="700" align="middle" lineHeight="125%" font-style="" opacity="1" y="4.2366863905325545" transform="rotate(0)"><tspan id="SvgjsTspan1053" dy="17" x="53"><tspan id="SvgjsTspan1054" style="text-decoration:;">数据统计管理</tspan></tspan></text></g></g><g id="SvgjsG1055" transform="translate(267.58675419132163,31.512942139950695)"><path id="SvgjsPath1056" d="M0 0L319 0L319 29L0 29Z " stroke="none" fill="none"></path><g id="SvgjsG1057"><text id="SvgjsText1058" font-family="微软雅黑" text-anchor="middle" font-size="14px" width="319px" fill="#0066cc" font-weight="700" align="middle" lineHeight="125%" font-style="" opacity="1" y="4.25" transform="rotate(0)"><tspan id="SvgjsTspan1059" dy="17" x="159.5"><tspan id="SvgjsTspan1060" style="text-decoration:;">前台</tspan></tspan></text></g></g><g id="SvgjsG1061" transform="translate(36.00342085798826,57.00584604005459)"><path id="SvgjsPath1062" d="M0 4Q0 0 4 0L787 0Q791 0 791 4L791 26Q791 30 787 30L4 30Q0 30 0 26Z " stroke="rgba(51,153,255,1)" stroke-width="1" fill-opacity="1" fill="#3399ff"></path><g id="SvgjsG1063"><text id="SvgjsText1064" font-family="微软雅黑" text-anchor="middle" font-size="14px" width="771px" fill="#ffffff" font-weight="700" align="middle" lineHeight="125%" font-style="" opacity="1" y="4.75" transform="rotate(0)"><tspan id="SvgjsTspan1065" dy="17" x="395.5"><tspan id="SvgjsTspan1066" style="text-decoration:;">Baas控制台</tspan></tspan></text></g></g><g id="SvgjsG1067" transform="translate(680.453125,462.8769132653058)"><path id="SvgjsPath1068" d="M0 4Q0 0 4 0L140 0Q144 0 144 4L144 25Q144 29 140 29L4 29Q0 29 0 25Z " stroke="rgba(51,153,255,1)" stroke-width="1" fill-opacity="1" fill="#3399ff"></path><g id="SvgjsG1069"><text id="SvgjsText1070" font-family="微软雅黑" text-anchor="middle" font-size="14px" width="124px" fill="#ffffff" font-weight="700" align="middle" lineHeight="125%" font-style="" opacity="1" y="4.25" transform="rotate(0)"><tspan id="SvgjsTspan1071" dy="17" x="72"><tspan id="SvgjsTspan1072" style="text-decoration:;">日志采集</tspan></tspan></text></g></g><g id="SvgjsG1073" transform="translate(680.453125,422.3769132653058)"><path id="SvgjsPath1074" d="M0 4Q0 0 4 0L140 0Q144 0 144 4L144 25Q144 29 140 29L4 29Q0 29 0 25Z " stroke="rgba(51,153,255,1)" stroke-width="1" fill-opacity="1" fill="#3399ff"></path><g id="SvgjsG1075"><text id="SvgjsText1076" font-family="微软雅黑" text-anchor="middle" font-size="14px" width="124px" fill="#ffffff" font-weight="700" align="middle" lineHeight="125%" font-style="" opacity="1" y="4.25" transform="rotate(0)"><tspan id="SvgjsTspan1077" dy="17" x="72"><tspan id="SvgjsTspan1078" style="text-decoration:;">指标采集</tspan></tspan></text></g></g><g id="SvgjsG1079" transform="translate(677.8628883136095,384.93028846153845)"><path id="SvgjsPath1080" d="M0 0L144 0L144 29L0 29Z " stroke="none" fill="none"></path><g id="SvgjsG1081"><text id="SvgjsText1082" font-family="微软雅黑" text-anchor="middle" font-size="14px" width="144px" fill="#0066cc" font-weight="700" align="middle" lineHeight="125%" font-style="" opacity="1" y="4.25" transform="rotate(0)"><tspan id="SvgjsTspan1083" dy="17" x="72"><tspan id="SvgjsTspan1084" style="text-decoration:;">服务管控</tspan></tspan></text></g></g><g id="SvgjsG1085" transform="translate(626.0803439349113,157.51915964952204)"><path id="SvgjsPath1086" d="M0 4Q0 0 4 0L101.38461538461536 0Q105.38461538461536 0 105.38461538461536 4L105.38461538461536 24.97337278106511Q105.38461538461536 28.97337278106511 101.38461538461536 28.97337278106511L4 28.97337278106511Q0 28.97337278106511 0 24.97337278106511Z " stroke="rgba(51,153,255,1)" stroke-width="1" fill-opacity="1" fill="#3399ff"></path><g id="SvgjsG1087"><text id="SvgjsText1088" font-family="微软雅黑" text-anchor="middle" font-size="14px" width="86px" fill="#ffffff" font-weight="700" align="middle" lineHeight="125%" font-style="" opacity="1" y="4.2366863905325545" transform="rotate(0)"><tspan id="SvgjsTspan1089" dy="17" x="53"><tspan id="SvgjsTspan1090" style="text-decoration:;">数据监管管理</tspan></tspan></text></g></g><g id="SvgjsG1091" transform="translate(116.92649778106482,746.4232063211846)"><path id="SvgjsPath1092" d="M0 0L64 0L64 64L0 64Z " stroke="none" fill="url(#SvgjsPattern1093)"></path></g><g id="SvgjsG1095" transform="translate(330.3574175667862,688.6065176197112)"><path id="SvgjsPath1096" d="M0 4Q0 0 4 0L194.44970414201208 0Q198.44970414201208 0 198.44970414201208 4L198.44970414201208 126.7222086061413Q198.44970414201208 130.7222086061413 194.44970414201208 130.7222086061413L4 130.7222086061413Q0 130.7222086061413 0 126.7222086061413Z " stroke="rgba(229,229,229,1)" stroke-width="1" fill-opacity="1" fill="#ffffff"></path><g id="SvgjsG1097"><text id="SvgjsText1098" font-family="微软雅黑" text-anchor="middle" font-size="13px" width="179px" fill="#323232" font-weight="400" align="middle" lineHeight="125%" font-style="" opacity="1" y="55.73610430307065" transform="rotate(0)"></text></g></g><g id="SvgjsG1099" transform="translate(371.41546875547016,705.1286693513857)"><path id="SvgjsPath1100" d="M0 4Q0 0 4 0L113.03095129722351 0Q117.03095129722351 0 117.03095129722351 4L117.03095129722351 22.73076923076934Q117.03095129722351 26.73076923076934 113.03095129722351 26.73076923076934L4 26.73076923076934Q0 26.73076923076934 0 22.73076923076934Z " stroke="rgba(51,153,255,1)" stroke-width="1" fill-opacity="1" fill="#3399ff"></path><g id="SvgjsG1101"><text id="SvgjsText1102" font-family="微软雅黑" text-anchor="middle" font-size="14px" width="98px" fill="#ffffff" font-weight="700" align="middle" lineHeight="125%" font-style="" opacity="1" y="3.11538461538467" transform="rotate(0)"><tspan id="SvgjsTspan1103" dy="17" x="59"><tspan id="SvgjsTspan1104" style="text-decoration:;">节点边车服务</tspan></tspan></text></g></g><g id="SvgjsG1105" transform="translate(396.4200204168266,746.4232063211846)"><path id="SvgjsPath1106" d="M0 0L64 0L64 64L0 64Z " stroke="none" fill="url(#SvgjsPattern1107)"></path></g><g id="SvgjsG1109" transform="translate(609.8509402025479,688.6065176197112)"><path id="SvgjsPath1110" d="M0 4Q0 0 4 0L194.44970414201208 0Q198.44970414201208 0 198.44970414201208 4L198.44970414201208 126.7222086061413Q198.44970414201208 130.7222086061413 194.44970414201208 130.7222086061413L4 130.7222086061413Q0 130.7222086061413 0 126.7222086061413Z " stroke="rgba(229,229,229,1)" stroke-width="1" fill-opacity="1" fill="#ffffff"></path><g id="SvgjsG1111"><text id="SvgjsText1112" font-family="微软雅黑" text-anchor="middle" font-size="13px" width="179px" fill="#323232" font-weight="400" align="middle" lineHeight="125%" font-style="" opacity="1" y="55.73610430307065" transform="rotate(0)"></text></g></g><g id="SvgjsG1113" transform="translate(650.9089913912319,705.1286693513857)"><path id="SvgjsPath1114" d="M0 4Q0 0 4 0L113.03095129722351 0Q117.03095129722351 0 117.03095129722351 4L117.03095129722351 22.73076923076934Q117.03095129722351 26.73076923076934 113.03095129722351 26.73076923076934L4 26.73076923076934Q0 26.73076923076934 0 22.73076923076934Z " stroke="rgba(51,153,255,1)" stroke-width="1" fill-opacity="1" fill="#3399ff"></path><g id="SvgjsG1115"><text id="SvgjsText1116" font-family="微软雅黑" text-anchor="middle" font-size="14px" width="98px" fill="#ffffff" font-weight="700" align="middle" lineHeight="125%" font-style="" opacity="1" y="3.11538461538467" transform="rotate(0)"><tspan id="SvgjsTspan1117" dy="17" x="59"><tspan id="SvgjsTspan1118" style="text-decoration:;">节点边车服务</tspan></tspan></text></g></g><g id="SvgjsG1119" transform="translate(675.9135430525885,746.4232063211846)"><path id="SvgjsPath1120" d="M0 0L64 0L64 64L0 64Z " stroke="none" fill="url(#SvgjsPattern1121)"></path></g><g id="SvgjsG1123" transform="translate(33.28448594674592,856.430288461539)"><path id="SvgjsPath1124" d="M0 4Q0 0 4 0L808.5384615384612 0Q812.5384615384612 0 812.5384615384612 4L812.5384615384612 89.11538461538419Q812.5384615384612 93.11538461538419 808.5384615384612 93.11538461538419L4 93.11538461538419Q0 93.11538461538419 0 89.11538461538419Z " stroke="rgba(204,229,255,1)" stroke-width="1" fill-opacity="1" fill="#cce5ff"></path><g id="SvgjsG1125"><text id="SvgjsText1126" font-family="微软雅黑" text-anchor="middle" font-size="13px" width="793px" fill="#323232" font-weight="400" align="middle" lineHeight="125%" font-style="" opacity="1" y="36.93269230769209" transform="rotate(0)"></text></g></g><g id="SvgjsG1127" transform="translate(280.0537167159765,861.5841346153841)"><path id="SvgjsPath1128" d="M0 0L319 0L319 29L0 29Z " stroke="none" fill="none"></path><g id="SvgjsG1129"><text id="SvgjsText1130" font-family="微软雅黑" text-anchor="middle" font-size="14px" width="319px" fill="#0066cc" font-weight="700" align="middle" lineHeight="125%" font-style="" opacity="1" y="4.25" transform="rotate(0)"><tspan id="SvgjsTspan1131" dy="17" x="159.5"><tspan id="SvgjsTspan1132" style="text-decoration:;">链数据存储层</tspan></tspan></text></g></g><g id="SvgjsG1133" transform="translate(104.46495931952671,898.0917782382608)"><path id="SvgjsPath1134" d="M0 0L120 0L120 40L0 40Z " stroke="none" fill="none"></path><g id="SvgjsG1135"><text id="SvgjsText1136" font-family="微软雅黑" text-anchor="middle" font-size="13px" width="120px" fill="#323232" font-weight="400" align="middle" lineHeight="125%" font-style="" opacity="1" y="10.375" transform="rotate(0)"><tspan id="SvgjsTspan1137" dy="16" x="60"><tspan id="SvgjsTspan1138" style="text-decoration:;fill: rgb(0, 0, 255);">RocksDB</tspan></tspan></text></g></g><g id="SvgjsG1139" transform="translate(295.11781928007906,894.5456730769233)"><path id="SvgjsPath1140" d="M0 0L120 0L120 40L0 40Z " stroke="none" fill="none"></path><g id="SvgjsG1141"><text id="SvgjsText1142" font-family="微软雅黑" text-anchor="middle" font-size="13px" width="120px" fill="#323232" font-weight="400" align="middle" lineHeight="125%" font-style="" opacity="1" y="10.375" transform="rotate(0)"><tspan id="SvgjsTspan1143" dy="16" x="60"><tspan id="SvgjsTspan1144" style="text-decoration:;fill: rgb(0, 0, 255);">MySQL</tspan></tspan></text></g></g><g id="SvgjsG1145" transform="translate(77.69572855029594,145.00584604005456)"><path id="SvgjsPath1146" d="M0 0L365.75739644970395 0L365.75739644970395 201.46290395994544L0 201.46290395994544Z " stroke="none" fill-opacity="1" fill="#ffffff"></path><g id="SvgjsG1147"><text id="SvgjsText1148" font-family="微软雅黑" text-anchor="middle" font-size="13px" width="346px" fill="#323232" font-weight="400" align="middle" lineHeight="125%" font-style="" opacity="1" y="91.10645197997272" transform="rotate(0)"></text></g></g><g id="SvgjsG1149" transform="translate(98.03004807692292,189.46874999999997)"><path id="SvgjsPath1150" d="M0 4Q0 0 4 0L86 0Q90 0 90 4L90 25Q90 29 86 29L4 29Q0 29 0 25Z " stroke="rgba(51,153,255,1)" stroke-width="1" fill-opacity="1" fill="#3399ff"></path><g id="SvgjsG1151"><text id="SvgjsText1152" font-family="微软雅黑" text-anchor="middle" font-size="14px" width="70px" fill="#ffffff" font-weight="700" align="middle" lineHeight="125%" font-style="" opacity="1" y="4.25" transform="rotate(0)"><tspan id="SvgjsTspan1153" dy="17" x="45"><tspan id="SvgjsTspan1154" style="text-decoration:;">agent管理</tspan></tspan></text></g></g><g id="SvgjsG1155" transform="translate(214.908746301775,189.46874999999997)"><path id="SvgjsPath1156" d="M0 4Q0 0 4 0L86 0Q90 0 90 4L90 25Q90 29 86 29L4 29Q0 29 0 25Z " stroke="rgba(51,153,255,1)" stroke-width="1" fill-opacity="1" fill="#3399ff"></path><g id="SvgjsG1157"><text id="SvgjsText1158" font-family="微软雅黑" text-anchor="middle" font-size="14px" width="70px" fill="#ffffff" font-weight="700" align="middle" lineHeight="125%" font-style="" opacity="1" y="4.25" transform="rotate(0)"><tspan id="SvgjsTspan1159" dy="17" x="45"><tspan id="SvgjsTspan1160" style="text-decoration:;">节点管理</tspan></tspan></text></g></g><g id="SvgjsG1161" transform="translate(331.787444526627,189.46874999999997)"><path id="SvgjsPath1162" d="M0 4Q0 0 4 0L86 0Q90 0 90 4L90 25Q90 29 86 29L4 29Q0 29 0 25Z " stroke="rgba(51,153,255,1)" stroke-width="1" fill-opacity="1" fill="#3399ff"></path><g id="SvgjsG1163"><text id="SvgjsText1164" font-family="微软雅黑" text-anchor="middle" font-size="14px" width="70px" fill="#ffffff" font-weight="700" align="middle" lineHeight="125%" font-style="" opacity="1" y="4.25" transform="rotate(0)"><tspan id="SvgjsTspan1165" dy="17" x="45"><tspan id="SvgjsTspan1166" style="text-decoration:;">群组管理</tspan></tspan></text></g></g><g id="SvgjsG1167" transform="translate(50.86389493102439,424.46875)"><path id="SvgjsPath1168" d="M0 4Q0 0 4 0L86 0Q90 0 90 4L90 25Q90 29 86 29L4 29Q0 29 0 25Z " stroke="rgba(51,153,255,1)" stroke-width="1" fill-opacity="1" fill="#3399ff"></path><g id="SvgjsG1169"><text id="SvgjsText1170" font-family="微软雅黑" text-anchor="middle" font-size="14px" width="70px" fill="#ffffff" font-weight="700" align="middle" lineHeight="125%" font-style="" opacity="1" y="4.25" transform="rotate(0)"><tspan id="SvgjsTspan1171" dy="17" x="45"><tspan id="SvgjsTspan1172" style="text-decoration:;">Agent服务</tspan></tspan></text></g></g><g id="SvgjsG1173" transform="translate(98.03004807692287,243.96875)"><path id="SvgjsPath1174" d="M0 4Q0 0 4 0L86 0Q90 0 90 4L90 25Q90 29 86 29L4 29Q0 29 0 25Z " stroke="rgba(51,153,255,1)" stroke-width="1" fill-opacity="1" fill="#3399ff"></path><g id="SvgjsG1175"><text id="SvgjsText1176" font-family="微软雅黑" text-anchor="middle" font-size="14px" width="70px" fill="#ffffff" font-weight="700" align="middle" lineHeight="125%" font-style="" opacity="1" y="4.25" transform="rotate(0)"><tspan id="SvgjsTspan1177" dy="17" x="45"><tspan id="SvgjsTspan1178" style="text-decoration:;">证书管理</tspan></tspan></text></g></g><g id="SvgjsG1179" transform="translate(214.90874630177495,243.96875)"><path id="SvgjsPath1180" d="M0 4Q0 0 4 0L86 0Q90 0 90 4L90 25Q90 29 86 29L4 29Q0 29 0 25Z " stroke="rgba(51,153,255,1)" stroke-width="1" fill-opacity="1" fill="#3399ff"></path><g id="SvgjsG1181"><text id="SvgjsText1182" font-family="微软雅黑" text-anchor="middle" font-size="14px" width="70px" fill="#ffffff" font-weight="700" align="middle" lineHeight="125%" font-style="" opacity="1" y="4.25" transform="rotate(0)"><tspan id="SvgjsTspan1183" dy="17" x="45"><tspan id="SvgjsTspan1184" style="text-decoration:;">角色管理</tspan></tspan></text></g></g><g id="SvgjsG1185" transform="translate(331.7874445266269,243.96875)"><path id="SvgjsPath1186" d="M0 4Q0 0 4 0L86 0Q90 0 90 4L90 25Q90 29 86 29L4 29Q0 29 0 25Z " stroke="rgba(51,153,255,1)" stroke-width="1" fill-opacity="1" fill="#3399ff"></path><g id="SvgjsG1187"><text id="SvgjsText1188" font-family="微软雅黑" text-anchor="middle" font-size="14px" width="70px" fill="#ffffff" font-weight="700" align="middle" lineHeight="125%" font-style="" opacity="1" y="4.25" transform="rotate(0)"><tspan id="SvgjsTspan1189" dy="17" x="45"><tspan id="SvgjsTspan1190" style="text-decoration:;">合约管理</tspan></tspan></text></g></g><g id="SvgjsG1191" transform="translate(98.03004807692298,297.96875)"><path id="SvgjsPath1192" d="M0 4Q0 0 4 0L86 0Q90 0 90 4L90 25Q90 29 86 29L4 29Q0 29 0 25Z " stroke="rgba(51,153,255,1)" stroke-width="1" fill-opacity="1" fill="#3399ff"></path><g id="SvgjsG1193"><text id="SvgjsText1194" font-family="微软雅黑" text-anchor="middle" font-size="14px" width="70px" fill="#ffffff" font-weight="700" align="middle" lineHeight="125%" font-style="" opacity="1" y="4.25" transform="rotate(0)"><tspan id="SvgjsTspan1195" dy="17" x="45"><tspan id="SvgjsTspan1196" style="text-decoration:;">KM管理</tspan></tspan></text></g></g><g id="SvgjsG1197" transform="translate(214.9087463017749,297.96875)"><path id="SvgjsPath1198" d="M0 4Q0 0 4 0L86 0Q90 0 90 4L90 25Q90 29 86 29L4 29Q0 29 0 25Z " stroke="rgba(51,153,255,1)" stroke-width="1" fill-opacity="1" fill="#3399ff"></path><g id="SvgjsG1199"><text id="SvgjsText1200" font-family="微软雅黑" text-anchor="middle" font-size="14px" width="70px" fill="#ffffff" font-weight="700" align="middle" lineHeight="125%" font-style="" opacity="1" y="4.25" transform="rotate(0)"><tspan id="SvgjsTspan1201" dy="17" x="45"><tspan id="SvgjsTspan1202" style="text-decoration:;">用户管理</tspan></tspan></text></g></g><g id="SvgjsG1203" transform="translate(331.78744452662687,297.96875)"><path id="SvgjsPath1204" d="M0 4Q0 0 4 0L86 0Q90 0 90 4L90 25Q90 29 86 29L4 29Q0 29 0 25Z " stroke="rgba(51,153,255,1)" stroke-width="1" fill-opacity="1" fill="#3399ff"></path><g id="SvgjsG1205"><text id="SvgjsText1206" font-family="微软雅黑" text-anchor="middle" font-size="14px" width="70px" fill="#ffffff" font-weight="700" align="middle" lineHeight="125%" font-style="" opacity="1" y="4.25" transform="rotate(0)"><tspan id="SvgjsTspan1207" dy="17" x="45"><tspan id="SvgjsTspan1208" style="text-decoration:;">系统管理</tspan></tspan></text></g></g><g id="SvgjsG1209" transform="translate(209.66143026443808,391.4159269187174)"><path id="SvgjsPath1210" d="M0 0L242.50571945490086 0L242.50571945490086 16.02872308564214L0 16.02872308564214Z " stroke="none" fill="none"></path><g id="SvgjsG1211"><text id="SvgjsText1212" font-family="微软雅黑" text-anchor="middle" font-size="14px" width="243px" fill="#0066cc" font-weight="700" align="middle" lineHeight="125%" font-style="" opacity="1" y="-2.235638457178929" transform="rotate(0)"><tspan id="SvgjsTspan1213" dy="17" x="121.5"><tspan id="SvgjsTspan1214" style="text-decoration:;">中间服务层</tspan></tspan></text></g></g><g id="SvgjsG1215" transform="translate(26.84957470414207,532.9110576923078)"><path id="SvgjsPath1216" d="M0 4Q0 0 4 0L808.5384615384612 0Q812.5384615384612 0 812.5384615384612 4L812.5384615384612 89.11538461538419Q812.5384615384612 93.11538461538419 808.5384615384612 93.11538461538419L4 93.11538461538419Q0 93.11538461538419 0 89.11538461538419Z " stroke="rgba(204,229,255,1)" stroke-width="1" fill-opacity="1" fill="#cce5ff"></path><g id="SvgjsG1217"><text id="SvgjsText1218" font-family="微软雅黑" text-anchor="middle" font-size="13px" width="793px" fill="#323232" font-weight="400" align="middle" lineHeight="125%" font-style="" opacity="1" y="36.93269230769209" transform="rotate(0)"></text></g></g><g id="SvgjsG1219" transform="translate(273.6188054733726,538.0649038461529)"><path id="SvgjsPath1220" d="M0 0L319 0L319 29L0 29Z " stroke="none" fill="none"></path><g id="SvgjsG1221"><text id="SvgjsText1222" font-family="微软雅黑" text-anchor="middle" font-size="14px" width="319px" fill="#0066cc" font-weight="700" align="middle" lineHeight="125%" font-style="" opacity="1" y="4.25" transform="rotate(0)"><tspan id="SvgjsTspan1223" dy="17" x="159.5"><tspan id="SvgjsTspan1224" style="text-decoration:;">中间服务存储层</tspan></tspan></text></g></g><g id="SvgjsG1225" transform="translate(98.03004807692287,572.46875)"><path id="SvgjsPath1226" d="M0 0L120 0L120 40L0 40Z " stroke="none" fill="none"></path><g id="SvgjsG1227"><text id="SvgjsText1228" font-family="微软雅黑" text-anchor="middle" font-size="13px" width="120px" fill="#323232" font-weight="400" align="middle" lineHeight="125%" font-style="" opacity="1" y="10.375" transform="rotate(0)"><tspan id="SvgjsTspan1229" dy="16" x="60"><tspan id="SvgjsTspan1230" style="text-decoration:;fill: rgb(0, 0, 255);">Elasticsearch</tspan></tspan></text></g></g><g id="SvgjsG1231" transform="translate(270.9142899918885,572.46875)"><path id="SvgjsPath1232" d="M0 0L120 0L120 40L0 40Z " stroke="none" fill="none"></path><g id="SvgjsG1233"><text id="SvgjsText1234" font-family="微软雅黑" text-anchor="middle" font-size="13px" width="120px" fill="#323232" font-weight="400" align="middle" lineHeight="125%" font-style="" opacity="1" y="10.375" transform="rotate(0)"><tspan id="SvgjsTspan1235" dy="16" x="60"><tspan id="SvgjsTspan1236" style="text-decoration:;fill: rgb(0, 0, 255);">MySQL</tspan></tspan></text></g></g><g id="SvgjsG1237" transform="translate(443.7985319068541,572.46875)"><path id="SvgjsPath1238" d="M0 0L120 0L120 40L0 40Z " stroke="none" fill="none"></path><g id="SvgjsG1239"><text id="SvgjsText1240" font-family="微软雅黑" text-anchor="middle" font-size="13px" width="120px" fill="#323232" font-weight="400" align="middle" lineHeight="125%" font-style="" opacity="1" y="10.375" transform="rotate(0)"><tspan id="SvgjsTspan1241" dy="16" x="60"><tspan id="SvgjsTspan1242" style="text-decoration:;fill: rgb(0, 0, 255);">Prometheus</tspan></tspan></text></g></g><g id="SvgjsG1243" transform="translate(616.6827738218198,572.46875)"><path id="SvgjsPath1244" d="M0 0L120 0L120 40L0 40Z " stroke="none" fill="none"></path><g id="SvgjsG1245"><text id="SvgjsText1246" font-family="微软雅黑" text-anchor="middle" font-size="13px" width="120px" fill="#323232" font-weight="400" align="middle" lineHeight="125%" font-style="" opacity="1" y="10.375" transform="rotate(0)"><tspan id="SvgjsTspan1247" dy="16" x="60"><tspan id="SvgjsTspan1248" style="text-decoration:;fill: rgb(0, 0, 255);">Loki</tspan></tspan></text></g></g><g id="SvgjsG1249" transform="translate(210.96458876760835,424.46875)"><path id="SvgjsPath1250" d="M0 4Q0 0 4 0L86 0Q90 0 90 4L90 25Q90 29 86 29L4 29Q0 29 0 25Z " stroke="rgba(51,153,255,1)" stroke-width="1" fill-opacity="1" fill="#3399ff"></path><g id="SvgjsG1251"><text id="SvgjsText1252" font-family="微软雅黑" text-anchor="middle" font-size="14px" width="70px" fill="#ffffff" font-weight="700" align="middle" lineHeight="125%" font-style="" opacity="1" y="4.25" transform="rotate(0)"><tspan id="SvgjsTspan1253" dy="17" x="45"><tspan id="SvgjsTspan1254" style="text-decoration:;">链统计服务</tspan></tspan></text></g></g><g id="SvgjsG1255" transform="translate(371.7170542508429,424.46875)"><path id="SvgjsPath1256" d="M0 4Q0 0 4 0L86 0Q90 0 90 4L90 25Q90 29 86 29L4 29Q0 29 0 25Z " stroke="rgba(51,153,255,1)" stroke-width="1" fill-opacity="1" fill="#3399ff"></path><g id="SvgjsG1257"><text id="SvgjsText1258" font-family="微软雅黑" text-anchor="middle" font-size="14px" width="70px" fill="#ffffff" font-weight="700" align="middle" lineHeight="125%" font-style="" opacity="1" y="4.25" transform="rotate(0)"><tspan id="SvgjsTspan1259" dy="17" x="45"><tspan id="SvgjsTspan1260" style="text-decoration:;">监管采集</tspan></tspan></text></g></g><g id="SvgjsG1261" transform="translate(532.795405557403,424.46875)"><path id="SvgjsPath1262" d="M0 4Q0 0 4 0L86 0Q90 0 90 4L90 25Q90 29 86 29L4 29Q0 29 0 25Z " stroke="rgba(51,153,255,1)" stroke-width="1" fill-opacity="1" fill="#3399ff"></path><g id="SvgjsG1263"><text id="SvgjsText1264" font-family="微软雅黑" text-anchor="middle" font-size="14px" width="70px" fill="#ffffff" font-weight="700" align="middle" lineHeight="125%" font-style="" opacity="1" y="4.25" transform="rotate(0)"><tspan id="SvgjsTspan1265" dy="17" x="45"><tspan id="SvgjsTspan1266" style="text-decoration:;">监管报告</tspan></tspan></text></g></g><g id="SvgjsG1267" transform="translate(96.46458876760829,150.96874999999997)"><path id="SvgjsPath1268" d="M0 0L319 0L319 29L0 29Z " stroke="none" fill="none"></path><g id="SvgjsG1269"><text id="SvgjsText1270" font-family="微软雅黑" text-anchor="middle" font-size="14px" width="319px" fill="#0066cc" font-weight="700" align="middle" lineHeight="125%" font-style="" opacity="1" y="4.25" transform="rotate(0)"><tspan id="SvgjsTspan1271" dy="17" x="159.5"><tspan id="SvgjsTspan1272" style="text-decoration:;">链管理服务</tspan></tspan></text></g></g><g id="SvgjsG1273" transform="translate(50.86389493102439,469.96875)"><path id="SvgjsPath1274" d="M0 4Q0 0 4 0L86 0Q90 0 90 4L90 25Q90 29 86 29L4 29Q0 29 0 25Z " stroke="rgba(51,153,255,1)" stroke-width="1" fill-opacity="1" fill="#3399ff"></path><g id="SvgjsG1275"><text id="SvgjsText1276" font-family="微软雅黑" text-anchor="middle" font-size="14px" width="70px" fill="#ffffff" font-weight="700" align="middle" lineHeight="125%" font-style="" opacity="1" y="4.25" transform="rotate(0)"><tspan id="SvgjsTspan1277" dy="17" x="45"><tspan id="SvgjsTspan1278" style="text-decoration:;">签名服务</tspan></tspan></text></g></g><g id="SvgjsG1279" transform="translate(210.9645887676083,469.96875)"><path id="SvgjsPath1280" d="M0 4Q0 0 4 0L86 0Q90 0 90 4L90 25Q90 29 86 29L4 29Q0 29 0 25Z " stroke="rgba(51,153,255,1)" stroke-width="1" fill-opacity="1" fill="#3399ff"></path><g id="SvgjsG1281"><text id="SvgjsText1282" font-family="微软雅黑" text-anchor="middle" font-size="14px" width="70px" fill="#ffffff" font-weight="700" align="middle" lineHeight="125%" font-style="" opacity="1" y="4.25" transform="rotate(0)"><tspan id="SvgjsTspan1283" dy="17" x="45"><tspan id="SvgjsTspan1284" style="text-decoration:;">交易服务</tspan></tspan></text></g></g></svg>